<svg width="198" height="46" viewBox="0 0 198 46" fill="none" xmlns="http://www.w3.org/2000/svg">
<g clip-path="url(#clip0_33435_70649)">
<path d="M0 27.2484H7.19497C7.19497 29.5057 8.30232 30.4878 10.8654 30.4878C13.1055 30.4878 14.7043 29.6186 14.7043 27.6637C14.7043 25.7143 10.3983 25.1114 7.2506 24.2716C3.47912 23.2654 2.52345 20.0119 2.52345 17.8213C2.52345 13.0751 6.9458 9.57764 13.368 9.57764C19.7611 9.57764 22.9405 12.3927 22.9405 17.6552H16.1939C16.1939 16.0348 15.1526 14.7066 13.0344 14.7066C10.6321 14.7066 9.55159 15.7073 9.55159 17.1361C9.55159 18.7266 11.5905 19.1568 15.4191 20.1782C19.7341 21.3294 21.6475 23.8722 21.6475 27.1239C21.6475 32.0339 16.5404 35.8658 10.8029 35.8658C4.36133 35.8658 0 32.5182 0 27.2484Z" fill="black"/>
<path d="M21.5801 34.9915L26.8197 10.2015L33.4307 10.2004L31.3869 19.5446C33.4653 17.4752 35.5344 16.9018 37.5809 16.9018C40.2535 16.9018 42.878 18.1174 42.878 21.3926C42.878 25.614 41.8692 30.2468 40.3754 34.9915H33.9312L36.2253 24.5415C36.5982 23.1557 35.836 21.7596 33.7644 21.7456C31.8698 21.7456 30.8283 22.9112 30.2816 25.2341L28.2587 34.9915H21.5801Z" fill="black"/>
<path d="M106.403 0.985352V45.2826" stroke="black" stroke-width="0.697906" stroke-linejoin="round"/>
<path d="M112.996 37.8668V6.00854L117.539 7.05055L129.201 24.1198V8.70931L133.972 9.67867V34.6507L130.932 34.9912L118.544 18.8351V36.9209L112.996 37.8668Z" fill="black"/>
<path d="M113.946 38.7746L119.38 37.8665V21.2185" stroke="black" stroke-width="0.465269" stroke-linejoin="round"/>
<path d="M131.312 36.2397L135.036 35.7857V9.86768" stroke="black" stroke-width="0.465269" stroke-linejoin="round"/>
<path d="M139.102 10.0947V33.8938L142.824 33.671V10.2877L139.102 10.0947Z" fill="black"/>
<path d="M143.872 10.6086V34.7829H140.223" stroke="black" stroke-width="0.465269" stroke-linejoin="round"/>
<path d="M147.634 32.9485V10.8135L150.654 11.1162L160.458 23.8292V11.7215L164.487 12.3269V31.5857L161.218 32.3045L151.794 19.932L151.584 32.8682L147.634 32.9485Z" fill="black"/>
<path d="M147.822 34.206H152.713L152.605 22.3003" stroke="black" stroke-width="0.465269" stroke-linejoin="round"/>
<path d="M162.279 33.3232L165.45 32.7346V12.6956" stroke="black" stroke-width="0.465269" stroke-linejoin="round"/>
<path d="M165.772 42.7675C174.743 39.043 172.968 31.314 173.215 12.8561L169.399 12.3745C169.399 30.0358 169.803 33.8938 165.772 42.7675Z" fill="black"/>
<path d="M166.026 44.1854C173.275 40.1222 174.424 36.6821 174.424 26.0161V12.9631" stroke="black" stroke-width="0.465269" stroke-linejoin="round"/>
<path d="M176.381 32.229H181.777L183.069 28.5742" stroke="black" stroke-width="0.465269" stroke-linejoin="round"/>
<path d="M191.923 32.229H197.661L189.719 12.9631" stroke="black" stroke-width="0.465269" stroke-linejoin="round"/>
<path d="M83.9628 10.2017L78.6807 34.9917H85.1028L86.2428 29.9589L87.8769 28.4833L90.537 34.9917H98.0231L93.387 24.3969L101.443 17.2837L93.577 17.2849L87.9149 22.5986L90.6889 10.2017H83.9628Z" fill="black"/>
<path d="M67.3946 17.11L63.502 34.9916L70.4346 34.9909L72.6387 25.2671C73.7183 21.8326 76.7817 22.16 79.5169 22.8834L81.0798 17.0755C77.6328 16.0609 75.6802 17.6743 73.2087 19.6484L73.7597 17.1512L67.3946 17.11Z" fill="black"/>
<path d="M195.856 30.7344H191.619L190.138 27.6318H182.233L181.188 30.8096L176.381 30.7158L183.905 12.9629H188.541L195.856 30.7344ZM183.297 24.1885L189.149 24.3584L186.489 17.3594L183.297 24.1885Z" fill="black"/>
<path d="M185.064 23.0349L186.119 20.4431" stroke="black" stroke-width="0.465269" stroke-linejoin="round"/>
<path d="M56.9736 16.7314C60.7393 16.7315 63.1021 18.2208 63.502 21.4707C63.1422 28.8719 61.4318 30.2193 61.1807 34.707H55.1582V33.2314C53.5313 34.504 51.5788 35.5205 48.8115 35.5205C45.3345 35.5204 43.2258 33.6757 43.2256 30.5645C43.2256 28.126 44.8194 25.9374 46.3418 25.5312C50.3214 24.2531 52.1501 24.4346 53.4287 24.4346C55.0977 24.4346 56.9482 23.5924 56.9248 22.1455C56.9248 20.9159 56.3526 20.0078 54.6826 20.0078C53.0438 20.0079 52.5475 20.9686 52.0039 22.0508H45.4678C47.7035 17.3973 51.3111 16.7314 56.9736 16.7314ZM56.1826 26.6846C55.6867 27.2119 55.2319 27.3291 54.7861 27.3574C51.7054 27.1001 50.0944 27.7925 50.0928 29.7109C50.0928 31.031 50.8086 31.6376 52.4307 31.6377C54.7195 31.6159 55.7691 29.4663 56.1826 26.6846Z" fill="black"/>
</g>
<defs>
<clipPath id="clip0_33435_70649">
<rect width="198" height="46" fill="white"/>
</clipPath>
</defs>
</svg>
